<svg width="38" height="56" viewBox="0 0 38 56" fill="none" xmlns="http://www.w3.org/2000/svg">
<g clip-path="url(#clip0_22077_1427)">
<path d="M21.8198 21.6627H37.0071C37.3676 21.6627 38.2274 22.8208 37.9438 23.278C30.1903 34.2125 22.2829 45.0864 14.2457 55.818C13.0766 56.4008 11.9754 55.5016 12.2243 54.2421L16.0604 34.4668H0.987714C0.636239 34.4668 -0.216049 33.289 0.0509508 32.8515L22.0852 0.397793C23.0959 -0.54533 24.6361 0.308476 24.4234 1.66488L21.8213 21.6612L21.8198 21.6627ZM33.7895 24.3816H19.9568C19.5359 24.3816 18.9159 23.7518 18.8918 23.2977C19.2418 18.8636 19.996 14.4477 20.5617 10.0304C20.6884 9.04485 20.8347 8.03361 20.8604 7.04355L4.09216 31.7479H18.0365C18.4755 31.7479 19.201 32.6804 19.1136 33.1573L16.1162 48.7438L33.788 24.3816H33.7895Z" fill="#E2E3E4"/>
</g>
<defs>
<clipPath id="clip0_22077_1427">
<rect width="38" height="56" fill="white"/>
</clipPath>
</defs>
</svg>
