<svg width="75" height="51" viewBox="0 0 75 51" fill="none" xmlns="http://www.w3.org/2000/svg">
<g clip-path="url(#clip0_22077_1438)">
<path d="M0 19.8646L11.0083 0.696489C11.7967 -0.317254 12.1488 -0.0598581 13.1309 0.423254C16.9047 2.28046 20.5669 5.03856 24.3427 6.96705C25.5713 8.07979 23.7186 9.48557 24.0257 9.92116L28.7777 12.2694C30.5951 10.1409 31.9587 8.09761 34.9656 7.75111L50.1369 7.86793L50.9136 6.84825C54.6639 5.05638 58.5022 1.86863 62.229 0.219317C63.0507 -0.144997 63.4361 -0.0499583 63.9702 0.694509L74.8944 19.8705C75.2406 20.912 74.6753 21.1931 73.9397 21.7039C70.4965 24.0938 66.22 25.9292 62.679 28.2438C61.1902 28.6338 60.9379 26.6341 60.5388 26.541C60.2453 26.6083 59.2769 27.1568 59.3259 27.4676C62.3503 31.085 59.4784 35.9894 54.9163 35.2766C54.8771 38.2327 52.062 40.5473 49.2057 39.7216C49.0336 42.5768 46.4277 44.7072 43.638 44.4637C43.7632 48.1108 39.9934 50.0808 36.8593 48.6335C36.1746 49.1819 35.5896 49.9977 34.8091 50.4234C31.7689 52.0747 28.1575 49.9779 27.9678 46.5387C25.3874 47.0931 22.7385 44.9448 22.6954 42.2421C19.0234 42.7411 16.263 39.1831 17.7185 35.7221C14.8818 35.2212 13.3442 32.1443 14.383 29.4555C14.518 29.1051 15.1342 28.3428 15.0129 28.1567C13.6748 27.0716 13.8176 27.9943 13.037 28.2458C12.7338 28.3428 12.4775 28.3467 12.1899 28.1963L0.684717 21.4683L0 20.7536V19.8646ZM21.9657 8.30748L12.4423 3.03285L2.78191 20.0091L12.3014 25.2837L21.9657 8.30748ZM72.1946 20.0091L62.5323 3.02889L53.0108 8.30352L62.679 25.4936L72.1946 20.0071V20.0091ZM35.8048 10.1667C34.5528 10.2122 33.6255 10.5171 32.6708 11.3586L26.1171 19.3458C26.6785 21.0209 28.3942 21.6861 29.9221 20.7298C31.1155 19.9834 32.7451 17.3856 34.0422 16.3046C36.0396 14.6414 38.5926 14.4909 40.8072 15.8373L56.9509 25.8757L59.2437 24.4601L59.2887 24.266L51.3968 10.4557C50.6965 10.432 49.9726 10.2657 49.2801 10.2261C45.1913 9.99838 39.9073 10.0182 35.8029 10.1687L35.8048 10.1667ZM27.238 14.085L22.6954 11.9229L15.0931 25.4817L16.8949 26.3608C19.5418 23.4721 23.9377 24.466 25.0372 28.2497C28.5605 27.1271 31.7787 29.5902 31.4989 33.3343C34.2515 33.6649 36.0846 36.033 35.7325 38.8307L36.6128 37.8724C36.9512 37.7159 37.2956 37.7714 37.6399 37.8644C38.4948 38.0981 41.2865 40.4721 42.3331 41.1155C43.4854 41.8264 44.4675 42.4718 45.7606 41.4977C46.7897 40.7235 47.2827 39.189 46.2067 38.2327L39.1169 33.7006C38.3363 32.572 39.5395 31.2058 40.7152 31.9344L49.5579 37.3595C51.9798 38.1337 53.7092 35.1836 51.4712 33.3501C49.194 31.485 45.477 29.798 42.9161 28.0755C42.6422 27.8913 41.8519 27.428 41.7228 27.2083C41.0928 26.145 42.1453 24.8818 43.3035 25.4619L55.1256 32.764C57.6473 33.657 59.3239 30.5366 57.2463 28.8397L38.7237 17.5005C34.8951 16.4016 33.4533 21.9693 30.3115 23.1949C28.1438 24.0403 25.7591 23.3592 24.4816 21.3911C24.1431 20.8684 23.5406 19.6685 23.5836 19.0646C23.6658 17.8668 27.4259 14.3325 27.238 14.083V14.085ZM19.8764 27.1607C19.3051 27.2815 17.4583 29.111 17.0573 29.6416C15.2477 32.0414 17.8848 34.5322 20.1346 32.9046C20.5337 32.6155 21.7975 31.3127 22.1085 30.9009C23.5523 28.9863 22.1887 26.6737 19.8764 27.1588V27.1607ZM26.4692 30.4217C26.0877 30.4831 25.7825 30.6732 25.4773 30.9009C24.7692 31.4315 20.4926 35.7538 20.0876 36.4131C19.0567 38.0961 20.3772 40.1553 22.3218 39.8622C22.7091 39.8048 23.2471 39.4326 23.5641 39.191C24.3622 38.5812 28.4568 34.4351 28.8266 33.6986C29.6913 31.976 28.3179 30.1247 26.4673 30.4198L26.4692 30.4217ZM31.1429 35.7756C30.4973 35.7795 30.0004 36.0864 29.5113 36.4666C28.7601 37.0467 25.8393 40.0226 25.4206 40.773C24.1725 43.0183 26.4692 45.0953 28.4588 43.8479C28.9009 43.5707 32.8293 39.6068 33.0738 39.1811C33.9502 37.6684 32.8606 35.7617 31.1429 35.7736V35.7756ZM34.9597 41.2403C34.5234 41.3195 34.1635 41.6026 33.827 41.8719C33.2773 42.3114 30.9453 44.6636 30.6714 45.1982C29.5583 47.3802 31.8257 49.473 33.8778 48.1484C34.3024 47.8751 37.1704 44.9666 37.3719 44.5706C38.2835 42.7866 36.9278 40.8839 34.9597 41.2403ZM38.8059 46.6872C41.3941 46.9564 42.2686 43.6638 40.0501 42.3906C39.8388 42.7134 40.1225 43.1391 40.1088 43.4856C40.0638 44.6676 39.4788 45.7566 38.8059 46.6872Z" fill="#D9D3D3"/>
</g>
<defs>
<clipPath id="clip0_22077_1438">
<rect width="75" height="51" fill="white"/>
</clipPath>
</defs>
</svg>
