<svg width="20" height="19" viewBox="0 0 20 19" fill="none" xmlns="http://www.w3.org/2000/svg">
<g clip-path="url(#clip0_22077_555)">
<path d="M20 18.9538H15.8451L15.847 12.1625C15.7667 10.6128 15.3553 9.33183 13.4238 9.45132C11.745 9.55533 11.2808 10.8116 11.1998 12.2089L11.2018 19.0002H7.04688V6.30178H10.9817L11.0548 6.37113V8.0626L11.713 7.22677C13.0556 5.96993 15.1464 5.76252 16.9088 6.24296C19.1073 6.84229 19.7571 8.64892 19.9503 10.6351L20 18.9538Z" fill="#8B8888"/>
<path d="M4.45567 6.30176H0.300781V19.0002H4.45567V6.30176Z" fill="#8B8888"/>
<path d="M2.14898 0.0123019C5.34399 -0.268785 5.68419 4.35801 2.57407 4.58585C-0.559565 4.81555 -0.985958 0.287817 2.14898 0.0123019Z" fill="#8B8888"/>
</g>
<defs>
<clipPath id="clip0_22077_555">
<rect width="20" height="19" fill="white"/>
</clipPath>
</defs>
</svg>
