<svg width="23" height="17" viewBox="0 0 23 17" fill="none" xmlns="http://www.w3.org/2000/svg">
<g clip-path="url(#clip0_22077_1245)">
<path d="M-4.00543e-05 1.68266V15.3079C0.161366 16.2398 0.846916 16.908 1.81929 16.9884C8.39529 16.9474 14.9893 17.0748 21.5552 16.9241C22.374 16.7047 22.9195 16.0271 22.9898 15.1966C22.9538 10.6173 23.0658 6.02311 22.933 1.45162C22.7126 0.599485 22.0102 0.0653782 21.1289 0L1.81929 0.00221621C0.908216 0.0542972 0.102314 0.786755 -4.00543e-05 1.68266ZM1.75124 0.975687H21.2391L12.2589 9.09367C11.9068 9.40061 11.5284 9.54023 11.0739 9.3308C8.09498 6.7057 5.07214 4.09445 2.15447 1.39621C2.1106 1.35577 1.73043 0.996187 1.75124 0.975687ZM22.0023 15.3079L14.4173 8.46703L22.0023 1.63833V15.3074V15.3079ZM0.988077 15.3079V1.63833L8.57301 8.46703L0.988077 15.3079ZM1.70625 16.0154L9.29455 9.13744C9.40534 9.10586 10.0088 9.73637 10.1477 9.84496C10.759 10.3242 11.3388 10.5165 12.1138 10.2771C12.7369 10.0843 13.1514 9.47264 13.6727 9.12913L21.2841 16.0154H1.70625Z" fill="#757272"/>
</g>
<defs>
<clipPath id="clip0_22077_1245">
<rect width="23" height="17" fill="white" transform="matrix(-1 0 0 1 23 0)"/>
</clipPath>
</defs>
</svg>
