<svg width="55" height="55" viewBox="0 0 55 55" fill="none" xmlns="http://www.w3.org/2000/svg">
<g clip-path="url(#clip0_22077_1412)">
<path d="M21.3668 0C21.9578 0.289829 22.4254 0.651397 22.5387 1.35158C22.3293 4.55547 22.8486 8.17977 22.5516 11.3349C22.3551 13.4182 19.5178 13.4182 19.3227 11.3349C19.0257 8.1812 19.545 4.55547 19.3356 1.35158C19.4489 0.651397 19.9165 0.289829 20.5075 0L21.3668 0Z" fill="#D9D3D3"/>
<path d="M0 21.3727V20.5132C0.289761 19.9221 0.651244 19.4543 1.35126 19.341C4.5544 19.5505 8.17785 19.0311 11.3322 19.3281C13.4151 19.5246 13.4151 22.3627 11.3322 22.5578C8.17928 22.8548 4.5544 22.3354 1.35126 22.5449C0.651244 22.4315 0.289761 21.9638 0 21.3727Z" fill="#D9D3D3"/>
<path d="M49.7855 29.2483C50.3134 29.7763 50.398 30.6587 50.0207 31.29L45.3272 36.1195L50.147 40.9691C51.4409 42.2705 52.9901 43.6048 54.1721 44.998C54.885 45.8388 55.387 46.5203 54.6024 47.5807L47.5692 54.6155C46.9668 55.1033 46.1061 55.1521 45.5237 54.6155L36.2169 45.3338L35.9114 45.4227L31.2838 50.0313C30.2152 50.6267 29.0963 50.0442 28.775 48.9222L19.6504 21.3182C19.7092 20.3698 20.3633 19.7126 21.3144 19.6538L48.9119 28.7805C49.1687 28.8882 49.5961 29.0589 49.7855 29.2483ZM45.5266 31.0389L23.9452 23.951L31.0314 45.5375C31.1949 45.5806 31.2093 45.4945 31.3011 45.4313C32.5218 44.5862 33.764 42.6249 35.0134 41.7339C35.7005 41.2432 36.4838 41.1485 37.1537 41.7224L46.4604 51.0041L46.766 50.9151L51.0062 46.5591L41.7124 37.164C41.1386 36.494 41.2332 35.7106 41.7238 35.0233C42.6161 33.7736 44.5755 32.5311 45.4204 31.3101C45.4835 31.2197 45.5696 31.2039 45.5266 31.0403V31.0389Z" fill="#D9D3D3"/>
<path d="M34.1164 5.71752C35.7345 5.38178 36.7315 6.9041 35.9095 8.26285L28.7688 15.4053C27.1005 16.4067 25.4738 14.7783 26.4751 13.111L33.4982 6.06618C33.6675 5.92844 33.9027 5.762 34.115 5.71752H34.1164Z" fill="#D9D3D3"/>
<path d="M6.84249 5.7179C7.35316 5.61173 7.91403 5.67486 8.32142 6.01634L15.3546 13.0511C16.4505 14.7055 14.8138 16.4286 13.1082 15.4056L6.01481 8.32349C5.30045 7.49705 5.76235 5.94316 6.84393 5.7179H6.84249Z" fill="#D9D3D3"/>
<path d="M13.607 26.2309C15.2839 25.8851 16.2249 27.3529 15.4001 28.7762L8.31961 35.8713C6.78187 37.0019 4.90703 35.2084 5.96566 33.6244L12.9888 26.5795C13.158 26.4432 13.3933 26.2754 13.607 26.2309Z" fill="#D9D3D3"/>
</g>
<defs>
<clipPath id="clip0_22077_1412">
<rect width="55" height="55" fill="white"/>
</clipPath>
</defs>
</svg>
