<svg width="25" height="16" viewBox="0 0 25 16" fill="none" xmlns="http://www.w3.org/2000/svg">
<path d="M11.1474 0.010538C13.6835 -0.0165885 16.3399 0.00268562 18.869 0.139389C22.1325 0.315711 24.1754 0.270024 24.7042 3.6844C25.1038 6.26641 25.0924 9.68043 24.7042 12.2678C24.1848 15.7293 22.2547 15.6847 18.9209 15.8603C15.0189 16.0659 10.9843 16.0259 7.08077 15.8613C4.10445 15.7357 1.01925 16.1176 0.371461 12.7836C-0.108918 10.3104 -0.0757481 6.8971 0.201319 4.39076C0.529116 1.42718 1.22022 0.523086 4.53722 0.234689C6.6718 0.0490862 8.99526 0.0337383 11.1474 0.010538ZM10.0157 11.3962L16.4538 8.00001L10.0157 4.60384V11.3958V11.3962Z" fill="#8B8888"/>
</svg>
